<?xml version="1.0" encoding="UTF-8"?>
<!DOCTYPE svg PUBLIC "-//W3C//DTD SVG 1.0//EN" "http://www.w3.org/TR/2001/REC-SVG-20010904/DTD/svg10.dtd">
<!-- Creator: CorelDRAW X7 -->
<svg xmlns="http://www.w3.org/2000/svg" xml:space="preserve" width="68.3868mm" height="19.9718mm" version="1.0" style="shape-rendering:geometricPrecision; text-rendering:geometricPrecision; image-rendering:optimizeQuality; fill-rule:evenodd; clip-rule:evenodd"
viewBox="0 0 68387 19972"
 xmlns:xlink="http://www.w3.org/1999/xlink">
 <defs>
  <style type="text/css">
   <![CDATA[
    .fil4 {fill:black}
    .fil2 {fill:#006625;fill-rule:nonzero}
    .fil3 {fill:#73AB30;fill-rule:nonzero}
    .fil1 {fill:#9AC124;fill-rule:nonzero}
    .fil0 {fill:url(#id0);fill-rule:nonzero}
   ]]>
  </style>
  <linearGradient id="id0" gradientUnits="userSpaceOnUse" x1="57210.1" y1="20845.2" x2="64159.7" y2="1172.29">
   <stop offset="0" style="stop-opacity:1; stop-color:#1A863B"/>
   <stop offset="1" style="stop-opacity:1; stop-color:#66B134"/>
  </linearGradient>
 </defs>
 <g id="Warstwa_x0020_1">
  <metadata id="CorelCorpID_0Corel-Layer"/>
  <g id="_1710061881040">
   <path class="fil0" d="M67709 2938l-10131 -27c-361,-2 -793,182 -949,466l-5333 9737 -1551 2831c-191,351 -128,839 392,944l11608 3058c603,122 1215,-229 1389,-714l5231 -15770c123,-350 -311,-525 -656,-525z"/>
   <path class="fil1" d="M53307 588c-244,-372 -816,-644 -1321,-578l-8188 1073c-555,74 -897,477 -659,936l6215 10102c276,522 1015,871 1676,682l7765 -2248c567,-160 579,-730 327,-1111l-2277 -3467 -3538 -5389z"/>
   <path class="fil2" d="M58619 10601l-7066 2045 -257 468 -1511 2759 8357 -4210c413,-219 648,-545 477,-1062z"/>
   <path class="fil3" d="M55951 4615l-4402 8037 7246 -2097c567,-160 579,-730 327,-1111l-2277 -3467 -894 -1362z"/>
   <path class="fil4" d="M22482 4795c1171,0 2147,963 2147,2137l0 8093c0,102 -83,185 -186,185l-7140 0c-1170,0 -2147,-971 -2147,-2142l0 -2337c0,-1171 976,-2147 2147,-2147l5436 0 0 -1652c0,-140 -118,-253 -257,-253l-6194 0c-102,0 -184,-83 -184,-185l0 -1513c0,-103 82,-186 184,-186l6194 0zm257 8526l0 -2842 -5436 0c-139,0 -253,114 -253,252l0 2337c0,140 114,253 253,253l5436 0zm-20592 1889c-1170,0 -2147,-971 -2147,-2142l0 -8087c0,-103 83,-186 185,-186l1524 0c102,0 185,83 185,186l0 8087c0,139 114,253 253,253l3284 0c138,0 252,-114 252,-253l0 -8087c0,-103 83,-186 186,-186l762 0 762 0c102,0 185,83 185,186l0 8087c0,139 114,253 253,253l3283 0c139,0 253,-114 253,-253l0 -8087c0,-103 83,-186 185,-186l1524 0c103,0 185,83 185,186l0 8087c0,1171 -977,2142 -2147,2142l-3283 0c-442,0 -860,-139 -1200,-432 -340,293 -759,432 -1200,432l-3284 0zm37340 -1889c-102,0 -185,82 -185,185l0 1519c0,102 83,185 185,185l6196 0c1169,0 2147,-971 2147,-2142l0 -8087c0,-103 -83,-186 -185,-186l-1525 0 -4 0 -5 0 -5 1 -4 0 -5 0 -5 1 -4 1 -5 1 -4 1 0 0 -5 1 -4 1 -4 1 -5 2 -4 1 -5 2 -3 2 -4 2 -5 1 -4 2 -4 2 -3 3 -4 2 -4 2 -4 3 -4 2 -3 3 -4 2 -3 3 -4 3 -3 3 -3 3 -3 4 -3 3 -3 3 -3 3 -4 3 -2 4 -3 4 -2 3 -3 4 -2 4 -3 3 -2 4 0 0 -2 4 -2 4 -3 4 -1 4 -2 4 -2 4 -1 5 -2 4 -2 4 -1 5 -1 4 -1 5 -1 4 -1 5 -1 4 0 5 0 4 -1 5 0 5 0 5 0 5 0 4781c0,140 -113,252 -253,252l-5179 0c-140,0 -252,-112 -252,-252l0 -4781c0,-103 -83,-186 -185,-186l-1525 0c-102,0 -185,83 -185,186l0 4781c0,1171 978,2142 2147,2142l5179 0c85,0 169,-6 253,-16l0 1180c0,140 -113,253 -253,253l-6196 0zm-10350 0l2407 0c102,0 185,83 185,185l0 1519c0,102 -83,185 -185,185l-2407 0c-1169,0 -2147,-971 -2147,-2142l0 -8087c0,-103 83,-186 185,-186l1524 0c103,0 186,83 186,186l0 8087c0,140 112,253 252,253zm5684 0l2406 0c102,0 186,83 186,185l0 1519c0,102 -84,185 -186,185l-2406 0c-1170,0 -2147,-971 -2147,-2142l0 -8087c0,-103 83,-186 185,-186l1524 0c102,0 185,83 185,186l0 8087c0,140 113,253 253,253z"/>
   <path class="fil4" d="M49549 2068l-384 0 0 822 396 0c285,0 627,-34 627,-395 0,-380 -331,-427 -639,-427zm83 -305c465,0 1037,102 1037,681 0,364 -216,600 -567,669l555 1135 -526 0 -505 -1060 -461 0 0 1060 -469 0 0 -2485 936 0zm1853 1305c0,-1067 -813,-1919 -1903,-1919 -1054,0 -1909,858 -1909,1902 0,1028 869,1897 1891,1897 1052,0 1921,-829 1921,-1880zm-1912 -2212c1223,0 2198,982 2198,2192 0,1206 -986,2192 -2198,2192 -1190,0 -2186,-993 -2186,-2192 0,-1202 969,-2192 2186,-2192z"/>
  </g>
 </g>
</svg>
